<svg version="1.1" id="Layer_1" xmlns="http://www.w3.org/2000/svg" xmlns:xlink="http://www.w3.org/1999/xlink" x="0px" y="0px" width="32px" height="32px" viewBox="0 0 32 32" enable-background="new 0 0 32 32" xml:space="preserve">
  <g id="main">
    <g id="icon">
      <path d="M17.8,1.436L17.55,1.535L6.604,7.79L6.394,7.95L6.235,8.156L6.135,8.396L6.1,8.658L6.1,11.74L6.351,11.6L6.693,11.46L7.06,11.41L7.427,11.46L7.769,11.6L14.29,15.36L14.58,15.59L14.81,15.88L14.95,16.22L15,16.59L15,24.16L14.95,24.53L14.81,24.87L14.58,25.16L14.29,25.39L13.37,25.92L17.49,28.27L20.76,25L17.48,21.72L17.29,21.49L17.15,21.23L17.07,20.95L17.04,20.66L17.07,20.38L17.15,20.1L17.29,19.84L17.48,19.6L19.6,17.48L19.83,17.29L20.09,17.16L20.37,17.07L20.66,17.04L20.96,17.07L21.24,17.16L21.5,17.29L21.73,17.48L25,20.76L28.27,17.48L28.5,17.29L28.76,17.16L29.04,17.07L29.33,17.04L29.63,17.07L29.91,17.16L30,17.2L30,8.658L29.96,8.396L29.86,8.156L29.71,7.95L29.5,7.79L18.55,1.535L18.3,1.436L18.05,1.403zz" fill="#cfcfcf"/>
      <path d="M6.75,12.44L0.25,16.19L0.0668,16.37L0,16.62L0,24.13L0.0668,24.38L0.25,24.57L6.75,28.32L7,28.39L7.25,28.32L13.75,24.57L13.93,24.38L14,24.13L14,16.62L13.93,16.37L13.75,16.19L7.25,12.44L7,12.37zz" fill="#cfcfcf"/>
    </g>
    <g id="overlay">
      <path d="M31.91,29.789l-2.121,2.121c-0.195,0.195,-0.512,0.195,-0.707,0L25,27.828l-3.982,3.982c-0.195,0.195,-0.512,0.195,-0.707,0l-2.121,-2.121c-0.195,-0.195,-0.195,-0.512,0,-0.707L22.172,25l-3.982,-3.982c-0.195,-0.195,-0.195,-0.512,0,-0.707l2.121,-2.121c0.195,-0.195,0.512,-0.195,0.707,0L25,22.172l3.982,-3.982c0.195,-0.195,0.512,-0.195,0.707,0l2.121,2.121c0.195,0.195,0.195,0.512,0,0.707L27.828,25l4.082,4.082C32.106,29.277,32.106,29.594,31.91,29.789z" fill-rule="evenodd" fill="#CD4C32"/>
    </g>
  </g>
</svg>
