<svg version="1.1" id="Layer_1" xmlns="http://www.w3.org/2000/svg" xmlns:xlink="http://www.w3.org/1999/xlink" x="0px" y="0px" width="16px" height="16px" viewBox="0 0 16 16" enable-background="new 0 0 16 16" xml:space="preserve">
  <g id="main">
    <g id="icon">
      <path d="M8.756,0.566L3.277,3.696L3.093,3.879L3.025,4.13L3.025,5.158L3.506,5.072L3.869,5.12L4.208,5.26L7.246,7.014L7.538,7.239L7.759,7.528L7.899,7.864L7.948,8.23L7.948,10.07L8.355,9.515L9.046,8.543L9.187,8.643L9.521,8.506L9.882,8.46L10.25,8.504L10.56,8.616L11.05,8.905L11.17,8.991L11.42,8.297L11.77,7.331L11.99,6.898L12.24,6.516L12.52,6.187L12.83,5.913L13.16,5.697L13.51,5.54L13.88,5.444L14.26,5.411L14.76,5.467L14.98,5.538L14.98,4.13L14.92,3.879L14.73,3.696L9.252,0.566L9.004,0.5zz" fill="#cfcfcf"/>
      <path d="M3.257,6.081L0.251,7.817L0.06797,8L0.0009766,8.25L0.0009766,11.72L0.06797,11.97L0.251,12.16L3.256,13.89L3.506,13.96L3.756,13.89L5.397,12.94L5.397,12.93L5.523,12.54L5.777,12.21L6.145,11.97L6.576,11.73L6.944,11.41L7.013,11.34L7.013,8.25L6.946,8L6.763,7.817L3.757,6.081L3.507,6.014zz" fill="#cfcfcf"/>
    </g>
    <g id="overlay">
      <path d="M8.988,10.3502c-0.7561,1.0627,-1.266,2.0185,-2.4411,2.5344c-1.1751,0.5159,4.4176,3.8213,5.6499,2.9782c0.5449,-0.3728,1.0801,-1.0784,1.7187,-1.976c0.0049,-0.0069,0.0095,-0.014,0.0138,-0.0213L8.988,10.3502z" fill="#EAB765"/>
      <path d="M14.4593,13.0872c0.1815,-0.3818,-0.1468,-0.62,-0.4274,-0.8275c-0.3394,-0.2511,-1.0442,-0.6716,-0.6591,-1.1544c0.5019,-0.6292,1.2432,-1.0407,1.8266,-1.583c0.596,-0.554,1.0902,-1.397,0.6078,-2.1844c-0.1532,-0.2501,-0.327,-0.4341,-0.5372,-0.5756c-0.1953,-0.1469,-0.4327,-0.256,-0.7192,-0.3187c-0.9021,-0.1975,-1.5357,0.5454,-1.8637,1.2901c-0.321,0.729,-0.4659,1.5634,-0.8957,2.2438c-0.3298,0.5221,-0.9578,-0.0083,-1.3063,-0.2466c-0.2881,-0.197,-0.6233,-0.4253,-0.9245,-0.1287c-0.0749,0.0738,-0.1676,0.1883,-0.2875,0.3516l2.474,1.7601l2.4741,1.7602C14.3364,13.3072,14.4141,13.1821,14.4593,13.0872zM14.1655,8.315c-0.2735,-0.1946,-0.3375,-0.5741,-0.1429,-0.8476c0.1946,-0.2735,0.5741,-0.3375,0.8476,-0.1429c0.2735,0.1946,0.3375,0.5741,0.1429,0.8476C14.8185,8.4456,14.439,8.5095,14.1655,8.315z" fill="#6D6E71"/>
      <rect x="8.5721" y="11.6522" width="6.0779" height="0.5065" fill="#E6E7E8" transform="matrix(0.8148 0.5797 -0.5797 0.8148 9.05164 -4.52638)"/>
    </g>
  </g>
</svg>