<?xml version="1.0" encoding="UTF-8"?>
<!DOCTYPE svg PUBLIC "-//W3C//DTD SVG 1.1//EN" "http://www.w3.org/Graphics/SVG/1.1/DTD/svg11.dtd">
<svg version="1.1" id="Layer_1" xmlns="http://www.w3.org/2000/svg" xmlns:xlink="http://www.w3.org/1999/xlink" x="0px" y="0px" width="16px" height="16px" viewBox="0 0 16 16" enable-background="new 0 0 16 16" xml:space="preserve">
  <g id="main">
    <g id="icon">
      <path d="M8.756,0.566L3.277,3.696L3.093,3.879L3.025,4.13L3.025,5.158L3.506,5.072L3.869,5.12L4.208,5.26L7.246,7.014L7.538,7.239L7.759,7.528L7.899,7.864L7.948,8.23L7.948,11.74L7.899,12.1L7.759,12.44L7.538,12.73L7.246,12.96L7.137,13.02L8.756,13.94L9.004,14.01L9.252,13.94L9.348,13.89L9.091,13.49L9,13.02L9,11.1L9.088,10.67L9.328,10.31L9.683,10.07L10.12,9.983L10.53,10.06L10.88,10.3L11,10.42L11,8.256L11.03,8.004L11.1,7.768L11.38,7.368L11.78,7.099L12.02,7.026L12.27,7L13.78,7L14.02,7.025L14.26,7.098L14.65,7.367L14.91,7.768L14.98,8.176L14.98,4.13L14.92,3.879L14.73,3.696L9.252,0.566L9.004,0.5zz" fill="#cfcfcf"/>
      <path d="M3.257,6.081L0.251,7.817L0.06797,8L0.0009766,8.25L0.0009766,11.72L0.06797,11.97L0.251,12.16L3.256,13.89L3.506,13.96L3.756,13.89L6.762,12.16L6.945,11.97L7.013,11.72L7.013,8.25L6.946,8L6.763,7.817L3.757,6.081L3.507,6.014zz" fill="#cfcfcf"/>
    </g>
    <g id="overlay">
      <path d="M15.9301,13.2288c0.0451,-0.0478,0.0701,-0.111,0.0699,-0.1767l-0.0006,-1.9354c-0.0003,-0.1039,-0.1259,-0.1557,-0.1994,-0.0823l-1.8,1.7219V8.265c0,-0.1416,-0.0833,-0.265,-0.2249,-0.265h-0.5601h-0.502h-0.4391c-0.1416,0,-0.2563,0.1148,-0.2563,0.2563v4.4912l-1.8185,-1.7304c-0.0737,-0.0732,-0.1991,-0.0209,-0.1991,0.0829v1.9222c0,0.0662,0.0256,0.1299,0.0715,0.1776c0,0,2.0193,1.9735,2.7965,2.7414c0.0795,0.0786,0.204,0.078,0.2828,-0.0013C13.9127,15.1735,15.9301,13.2288,15.9301,13.2288z" fill-rule="evenodd" fill="#3E79B4"/>
    </g>
  </g>
</svg>