<svg version="1.1" id="Layer_1" xmlns="http://www.w3.org/2000/svg" xmlns:xlink="http://www.w3.org/1999/xlink" x="0px" y="0px" width="16px" height="16px" viewBox="0 0 16 16" enable-background="new 0 0 16 16" xml:space="preserve">
  <g id="main">
    <g id="icon">
      <path d="M8.756,0.566L3.277,3.696L3.093,3.879L3.025,4.13L3.025,5.158L3.506,5.072L3.869,5.12L4.208,5.26L7.168,6.969L7.749,6.388L7.951,6.222L8.177,6.101L8.423,6.026L8.683,6.001L8.943,6.026L9.189,6.101L9.416,6.222L9.617,6.388L11.47,8.238L13.32,6.388L13.52,6.222L13.75,6.101L13.99,6.026L14.25,6.001L14.51,6.026L14.76,6.101L14.98,6.222L14.98,4.13L14.92,3.879L14.73,3.696L9.252,0.566L9.004,0.5zM7.948,11.74L7.945,11.76L8.237,11.47L7.948,11.18zz" fill="#cfcfcf"/>
      <path d="M3.257,6.081L0.251,7.817L0.06797,8L0.0009766,8.25L0.0009766,11.72L0.06797,11.97L0.251,12.16L3.256,13.89L3.506,13.96L3.756,13.89L6.762,12.16L6.945,11.97L7.013,11.72L7.013,10.24L6.387,9.618L6.221,9.416L6.1,9.19L6.025,8.944L6,8.684L6.025,8.424L6.1,8.178L6.221,7.951L6.387,7.75L6.482,7.655L3.757,6.081L3.507,6.014zz" fill="#cfcfcf"/>
    </g>
    <g id="overlay">
      <path d="M15.906,14.544l-1.362,1.362c-0.125,0.125,-0.329,0.125,-0.454,0l-2.622,-2.622l-2.557,2.557c-0.125,0.125,-0.329,0.125,-0.454,0l-1.362,-1.362c-0.125,-0.125,-0.125,-0.329,0,-0.454l2.557,-2.557L7.094,8.911c-0.125,-0.125,-0.125,-0.329,0,-0.454l1.362,-1.362c0.125,-0.125,0.329,-0.125,0.454,0l2.557,2.557l2.557,-2.557c0.125,-0.125,0.329,-0.125,0.454,0l1.362,1.362c0.125,0.125,0.125,0.329,0,0.454l-2.557,2.557l2.622,2.622C16.031,14.215,16.031,14.418,15.906,14.544z" fill-rule="evenodd" fill="#CD4C32"/>
    </g>
  </g>
</svg>
