<?xml version="1.0" encoding="UTF-8"?>
<!DOCTYPE svg PUBLIC "-//W3C//DTD SVG 1.1//EN" "http://www.w3.org/Graphics/SVG/1.1/DTD/svg11.dtd">
<svg version="1.1" id="Layer_1" xmlns="http://www.w3.org/2000/svg" xmlns:xlink="http://www.w3.org/1999/xlink" x="0px" y="0px" width="32px" height="32px" viewBox="0 0 32 32" enable-background="new 0 0 32 32" xml:space="preserve">
  <g id="main">
    <g id="icon">
      <path d="M17.8,1.436L17.55,1.535L6.604,7.79L6.394,7.95L6.235,8.156L6.135,8.396L6.1,8.658L6.1,11.74L6.351,11.6L6.693,11.46L7.06,11.41L7.427,11.46L7.769,11.6L14.29,15.36L14.58,15.59L14.81,15.88L14.95,16.22L15,16.59L15,24.16L14.95,24.53L14.81,24.87L14.58,25.16L14.29,25.39L13.37,25.92L17.54,28.3L17.78,28.4L18.03,28.43L18.29,28.4L18.53,28.3L23,25.75L23,23.88L19.99,26.81L19.62,27.06L19.18,27.15L18.74,27.07L18.37,26.83L18.1,26.44L18,25.97L18,22.47L18.03,22.2L18.1,21.95L18.22,21.72L18.39,21.51L18.41,21.49L24.59,15.38L25.01,15.1L25.5,15L25.76,15.03L26,15.1L26.23,15.22L26.43,15.39L30,18.92L30,8.658L29.96,8.396L29.86,8.156L29.71,7.95L29.5,7.79L18.55,1.535L18.3,1.436L18.05,1.403zz" fill="#cfcfcf"/>
      <path d="M6.75,12.44L0.25,16.19L0.0668,16.37L0,16.62L0,24.13L0.0668,24.38L0.25,24.57L6.75,28.32L7,28.39L7.25,28.32L13.75,24.57L13.93,24.38L14,24.13L14,16.62L13.93,16.37L13.75,16.19L7.25,12.44L7,12.37zz" fill="#cfcfcf"/>
    </g>
    <g id="overlay">
      <path d="M31.3945,22.9319c0.068,0.0721,0.1058,0.1675,0.1055,0.2667l-0.0106,3.5252c-0.0004,0.1568,-0.19,0.2351,-0.301,0.1243L27,22.7319V31.6c0,0.2137,-0.1251,0.4,-0.3387,0.4h-0.8455h-0.7578h-0.6627c-0.2137,0,-0.3869,-0.1732,-0.3869,-0.3869V22.745l-4.2078,4.1034c-0.1113,0.1104,-0.3006,0.0316,-0.3006,-0.1252V23.218c0,-0.1,0.0387,-0.196,0.108,-0.2681c0,0,4.5109,-4.4704,5.6841,-5.6296c0.12,-0.1186,0.3079,-0.1178,0.4268,0.0019C26.8689,18.4795,31.3945,22.9319,31.3945,22.9319z" fill-rule="evenodd" fill="#3E79B4"/>
    </g>
  </g>
</svg>