<?xml version="1.0" encoding="UTF-8"?>
<!DOCTYPE svg PUBLIC "-//W3C//DTD SVG 1.1//EN" "http://www.w3.org/Graphics/SVG/1.1/DTD/svg11.dtd">
<svg version="1.1" id="Layer_1" xmlns="http://www.w3.org/2000/svg" xmlns:xlink="http://www.w3.org/1999/xlink" x="0px" y="0px" width="16px" height="16px" viewBox="0 0 16 16" enable-background="new 0 0 16 16" xml:space="preserve">
  <g id="main">
    <g id="icon">
      <path d="M8.756,0.566L3.277,3.696L3.093,3.879L3.025,4.13L3.025,5.158L3.506,5.072L3.869,5.12L4.208,5.26L7.246,7.014L7.538,7.239L7.759,7.528L7.899,7.864L7.948,8.23L7.948,11.74L7.899,12.1L7.759,12.44L7.538,12.73L7.246,12.96L7.137,13.02L8.756,13.94L9.004,14.01L9.252,13.94L9.511,13.8L9.33,13.67L9.09,13.32L9.001,12.89L9,10.95L9.088,10.48L9.343,10.08L9.359,10.07L9.376,10.05L12.14,7.355L12.53,7.092L12.99,7L13.45,7.09L13.83,7.347L14.98,8.473L14.98,4.13L14.92,3.879L14.73,3.696L9.252,0.566L9.004,0.5zz" fill="#cfcfcf"/>
      <path d="M3.257,6.081L0.251,7.817L0.06797,8L0.0009766,8.25L0.0009766,11.72L0.06797,11.97L0.251,12.16L3.256,13.89L3.506,13.96L3.756,13.89L6.762,12.16L6.945,11.97L7.013,11.72L7.013,8.25L6.946,8L6.763,7.817L3.757,6.081L3.507,6.014zz" fill="#cfcfcf"/>
    </g>
    <g id="overlay">
      <path d="M10.0699,10.7712c-0.0451,0.0478,-0.0701,0.111,-0.0699,0.1767l0.0006,1.9354c0.0003,0.1039,0.1259,0.1557,0.1994,0.0823l1.8,-1.7219v4.4913c0,0.1416,0.0833,0.265,0.2249,0.265h0.5601h0.502h0.4391c0.1416,0,0.2563,-0.1148,0.2563,-0.2563v-4.4913l1.8185,1.7304c0.0737,0.0732,0.1991,0.0209,0.1991,-0.0829v-1.9222c0,-0.0662,-0.0256,-0.1299,-0.0715,-0.1776c0,0,-2.0193,-1.9735,-2.7965,-2.7414c-0.0795,-0.0786,-0.204,-0.078,-0.2828,0.0013C12.0873,8.8265,10.0699,10.7712,10.0699,10.7712z" fill-rule="evenodd" fill="#3E79B4"/>
    </g>
  </g>
</svg>