<svg version="1.1" id="Layer_1" xmlns="http://www.w3.org/2000/svg" xmlns:xlink="http://www.w3.org/1999/xlink" x="0px" y="0px" width="16px" height="16px" viewBox="0 0 16 16" enable-background="new 0 0 16 16" xml:space="preserve">
  <g id="main">
    <g id="icon">
      <path d="M8.756,0.566L3.277,3.696L3.093,3.879L3.025,4.13L3.025,5.158L3.506,5.072L3.869,5.12L4.208,5.26L7.246,7.014L7.538,7.239L7.737,7.499L8.004,7.257L8.427,6.941L8.88,6.665L9.361,6.433L9.866,6.248L10.39,6.112L10.94,6.029L11.5,6L12.19,6.043L12.85,6.167L13.48,6.368L14.07,6.641L14.63,6.98L14.98,7.258L14.98,4.13L14.92,3.879L14.73,3.696L9.252,0.566L9.004,0.5zz" fill="#cfcfcf"/>
      <path d="M3.257,6.081L0.251,7.817L0.06797,8L0.0009766,8.25L0.0009766,11.72L0.06797,11.97L0.251,12.16L3.256,13.89L3.506,13.96L3.756,13.89L6.108,12.53L6.043,12.19L6,11.5L6.029,10.94L6.112,10.39L6.248,9.866L6.433,9.361L6.665,8.88L6.941,8.427L7.013,8.33L7.013,8.25L6.946,8L6.763,7.817L3.757,6.081L3.507,6.014zz" fill="#cfcfcf"/>
    </g>
    <g id="overlay">
      <path d="M12.8231,11.5069c0,-0.7352,-0.596,-1.3313,-1.3312,-1.3313c-0.7352,0,-1.3313,0.596,-1.3313,1.3313s0.596,1.3313,1.3313,1.3313C12.2271,12.8382,12.8231,12.2421,12.8231,11.5069zM10.6718,11.5069c0,-0.4529,0.3672,-0.8201,0.8201,-0.8201c0.4529,0,0.8201,0.3672,0.8201,0.8201c0,0.4529,-0.3672,0.8201,-0.8201,0.8201C11.039,12.327,10.6718,11.9599,10.6718,11.5069zM11.5028,12.0558c-0.307,0,-0.5558,-0.2488,-0.5558,-0.5558c0,-0.307,0.2488,-0.5558,0.5558,-0.5558c0.307,0,0.5558,0.2488,0.5558,0.5558C12.0586,11.807,11.8098,12.0558,11.5028,12.0558zM14.7083,8.9553l-1.7325,1.4112c-0.24,-0.3125,-0.5806,-0.5517,-0.9907,-0.6615c-0.0013,-0.0003,-0.0026,-0.0006,-0.0038,-0.0009l0.5735,-2.1587c0.0028,0.0008,0.0057,0.0014,0.0085,0.0022C13.4451,7.7837,14.1818,8.2909,14.7083,8.9553zM11.0008,13.2835l-0.6081,2.1494c-0.845,-0.2386,-1.5538,-0.727,-2.0678,-1.3635l1.7369,-1.4047C10.2952,12.9537,10.6171,13.1753,11.0008,13.2835z" fill="#FFFFFF"/>
      <path d="M11.5,7c-2.4853,0,-4.5,2.0147,-4.5,4.5c0,2.4853,2.0147,4.5,4.5,4.5c2.4853,0,4.5,-2.0147,4.5,-4.5C16,9.0147,13.9853,7,11.5,7zM10.1606,11.5069c0,-0.7352,0.596,-1.3313,1.3313,-1.3313c0.7352,0,1.3312,0.596,1.3312,1.3313s-0.596,1.3313,-1.3312,1.3313C10.7566,12.8382,10.1606,12.2421,10.1606,11.5069zM14.7083,8.9553l-1.7325,1.4112c-0.24,-0.3125,-0.5806,-0.5517,-0.9907,-0.6615c-0.0013,-0.0003,-0.0026,-0.0006,-0.0038,-0.0009l0.5735,-2.1587c0.0028,0.0008,0.0057,0.0014,0.0085,0.0022C13.4451,7.7837,14.1818,8.2909,14.7083,8.9553zM8.325,14.0694l1.7369,-1.4047c0.2334,0.289,0.5552,0.5106,0.939,0.6189l-0.6081,2.1494C9.5477,15.1943,8.8389,14.7059,8.325,14.0694zM11.4919,12.327c0.4529,0,0.8201,-0.3672,0.8201,-0.8201c0,-0.4529,-0.3672,-0.8201,-0.8201,-0.8201c-0.4529,0,-0.8201,0.3672,-0.8201,0.8201C10.6718,11.9599,11.039,12.327,11.4919,12.327zM11.5028,10.9442c0.307,0,0.5558,0.2488,0.5558,0.5558c0,0.307,-0.2488,0.5558,-0.5558,0.5558c-0.307,0,-0.5558,-0.2488,-0.5558,-0.5558C10.947,11.193,11.1959,10.9442,11.5028,10.9442z" fill="#3E79B4"/>
    </g>
  </g>
</svg>