<svg version="1.1" id="Layer_1" xmlns="http://www.w3.org/2000/svg" xmlns:xlink="http://www.w3.org/1999/xlink" x="0px" y="0px" width="32px" height="32px" viewBox="0 0 32 32" enable-background="new 0 0 32 32" xml:space="preserve">
  <g id="main">
    <g id="icon">
      <path d="M17.8,1.436L17.55,1.535L6.604,7.79L6.394,7.95L6.235,8.156L6.135,8.396L6.1,8.658L6.1,11.74L6.351,11.6L6.693,11.46L7.06,11.41L7.427,11.46L7.769,11.6L14.29,15.36L14.58,15.59L14.81,15.88L14.95,16.22L15,16.59L15,24.16L14.95,24.53L14.81,24.87L14.58,25.16L14.29,25.39L13.37,25.92L17.54,28.3L17.78,28.4L18.03,28.43L18.29,28.4L18.53,28.3L19.05,28L18.5,28L18.2,27.97L17.92,27.88L17.66,27.74L17.44,27.56L17.26,27.34L17.12,27.08L17.03,26.8L17,26.5L17,23.5L17.03,23.2L17.12,22.92L17.26,22.66L17.44,22.44L17.66,22.26L17.92,22.12L18.2,22.03L18.5,22L22,22L22,18.5L22.03,18.2L22.12,17.92L22.26,17.66L22.44,17.44L22.66,17.26L22.92,17.12L23.2,17.03L23.5,17L26.5,17L26.8,17.03L27.08,17.12L27.34,17.26L27.56,17.44L27.74,17.66L27.88,17.92L27.97,18.2L28,18.5L28,22L29.54,22L29.7,21.88L29.86,21.67L29.96,21.43L30,21.17L30,8.658L29.96,8.396L29.86,8.156L29.71,7.95L29.5,7.79L18.55,1.535L18.3,1.436L18.05,1.403zz" fill="#cfcfcf"/>
      <path d="M6.75,12.44L0.25,16.19L0.0668,16.37L0,16.62L0,24.13L0.0668,24.38L0.25,24.57L6.75,28.32L7,28.39L7.25,28.32L13.75,24.57L13.93,24.38L14,24.13L14,16.62L13.93,16.37L13.75,16.19L7.25,12.44L7,12.37zz" fill="#cfcfcf"/>
    </g>
    <g id="overlay">
      <path d="M31.5,23h-4.5v-4.5c0,-0.276,-0.224,-0.5,-0.5,-0.5h-3c-0.276,0,-0.5,0.224,-0.5,0.5v4.5h-4.5c-0.276,0,-0.5,0.224,-0.5,0.5v3c0,0.276,0.224,0.5,0.5,0.5h4.5v4.5c0,0.276,0.224,0.5,0.5,0.5h3c0.276,0,0.5,-0.224,0.5,-0.5v-4.5h4.5c0.276,0,0.5,-0.224,0.5,-0.5v-3C32,23.224,31.776,23,31.5,23z" fill-rule="evenodd" fill="#4EA17E"/>
    </g>
  </g>
</svg>