<svg version="1.1" id="Layer_1" xmlns="http://www.w3.org/2000/svg" xmlns:xlink="http://www.w3.org/1999/xlink" x="0px" y="0px" width="32px" height="32px" viewBox="0 0 32 32" enable-background="new 0 0 32 32" xml:space="preserve">
  <g id="main">
    <g id="icon">
      <path d="M17.75,1.031L17.51,1.13L6.545,7.393L6.335,7.553L6.176,7.759L6.076,7.999L6.041,8.261L6.041,11.34L6.293,11.19L6.636,11.05L7.004,11L7.372,11.05L7.715,11.19L14.26,14.97L14.55,15.2L14.78,15.49L14.92,15.83L14.97,16.2L14.97,23.76L14.92,24.13L14.78,24.47L14.55,24.76L14.26,24.99L13.34,25.52L15.61,26.81L15.64,26.71L15.92,26.34L16.34,26.08L16.81,25.84L17.23,25.56L17.97,24.89L18.62,24.09L19.27,23.17L19.26,23.16L19.72,22.52L19.71,22.52L20.13,21.94L20.89,20.87L20.97,20.93L21.23,20.74L21.5,20.61L21.79,20.53L22.09,20.5L22.55,20.56L22.96,20.71L23.62,21.11L23.82,21.24L24.41,21.62L24.8,20.77L25.13,19.82L25.38,19.08L25.67,18.33L25.98,17.72L26.33,17.18L26.72,16.71L27.14,16.32L27.6,16.02L28.08,15.79L28.58,15.66L29.11,15.61L29.79,15.69L29.97,15.74L29.97,8.261L29.93,7.999L29.83,7.759L29.67,7.553L29.46,7.393L18.5,1.13L18.26,1.031L18,0.998zz" fill="#cfcfcf"/>
      <path d="M6.753,12.02L0.2381,15.78L0.05488,15.97L-0,16.17L0,23.79L0.05488,23.99L0.2381,24.17L6.753,27.94L7.003,28L7.253,27.94L13.77,24.17L13.95,23.99L14.02,23.74L14.02,16.22L13.95,15.97L13.77,15.78L7.253,12.02L7.003,11.95zz" fill="#cfcfcf"/>
    </g>
    <g id="overlay">
      <path d="M20.6576,22.9259c-1.2121,1.7037,-2.0295,3.2359,-3.9134,4.063c-1.8839,0.8271,7.082,6.1261,9.0575,4.7745c0.8736,-0.5977,1.7315,-1.7287,2.7553,-3.1678c0.0079,-0.0111,0.0152,-0.0225,0.0221,-0.0341L20.6576,22.9259z" fill="#EAB765"/>
      <path d="M29.4288,27.3137c0.2909,-0.6121,-0.2353,-0.9939,-0.6851,-1.3267c-0.5441,-0.4025,-1.674,-1.0767,-1.0566,-1.8507c0.8047,-1.0087,1.9931,-1.6684,2.9284,-2.5378c0.9555,-0.8882,1.7478,-2.2395,0.9744,-3.5019c-0.2456,-0.4009,-0.5242,-0.696,-0.8611,-0.9228c-0.313,-0.2356,-0.6937,-0.4104,-1.1529,-0.5109c-1.4461,-0.3167,-2.462,0.8743,-2.9878,2.0682c-0.5146,1.1686,-0.747,2.5063,-1.436,3.5972c-0.5287,0.837,-1.5355,-0.0133,-2.0941,-0.3954c-0.4619,-0.3159,-0.9993,-0.6818,-1.4821,-0.2063c-0.1201,0.1183,-0.2686,0.3018,-0.4609,0.5637l3.9662,2.8217l3.9663,2.8218C29.2318,27.6665,29.3564,27.466,29.4288,27.3137zM28.9578,19.6632c-0.4385,-0.312,-0.5411,-0.9203,-0.2291,-1.3588c0.312,-0.4385,0.9203,-0.5411,1.3588,-0.2291c0.4385,0.312,0.5411,0.9203,0.2291,1.3588C30.0046,19.8725,29.3963,19.9751,28.9578,19.6632z" fill="#6D6E71"/>
      <rect x="19.9908" y="25.0133" width="9.7437" height="0.812" fill="#E6E7E8" transform="matrix(0.8148 0.5797 -0.5797 0.8148 19.3394 -9.70599)"/>
    </g>
  </g>
</svg>
