<svg version="1.1" id="Layer_1" xmlns="http://www.w3.org/2000/svg" xmlns:xlink="http://www.w3.org/1999/xlink" x="0px" y="0px" width="32px" height="32px" viewBox="0 0 32 32" enable-background="new 0 0 32 32" xml:space="preserve">
  <g id="main">
    <g id="icon">
      <path d="M17.75,1.031L17.51,1.13L6.545,7.393L6.335,7.553L6.176,7.759L6.076,7.999L6.041,8.261L6.041,11.34L6.293,11.19L6.636,11.05L7.004,11L7.372,11.05L7.715,11.19L14.26,14.97L14.55,15.2L14.78,15.49L14.92,15.83L14.97,16.2L14.97,23.76L14.92,24.13L14.78,24.47L14.55,24.76L14.26,24.99L13.34,25.52L17.43,27.86L17.19,27.16L16.97,26.1L16.9,25L16.94,24.17L17.06,23.37L17.26,22.59L17.54,21.85L17.88,21.14L18.28,20.47L18.75,19.85L19.27,19.27L19.85,18.75L20.47,18.28L21.14,17.88L21.85,17.54L22.59,17.26L23.37,17.06L24.17,16.94L25,16.9L26.1,16.97L27.16,17.19L28.16,17.54L29.1,18.01L29.96,18.59L29.97,18.6L29.97,8.261L29.93,7.999L29.83,7.759L29.67,7.553L29.46,7.393L18.5,1.13L18.26,1.031L18,0.998zz" fill="#cfcfcf"/>
      <path d="M6.753,12.02L0.2381,15.78L0.05488,15.97L-0,16.17L0,23.79L0.05488,23.99L0.2381,24.17L6.753,27.94L7.003,28L7.253,27.94L13.77,24.17L13.95,23.99L14.02,23.74L14.02,16.22L13.95,15.97L13.77,15.78L7.253,12.02L7.003,11.95zz" fill="#cfcfcf"/>
    </g>
    <g id="overlay">
      <path d="M27.0582,25.0108c0,-1.1437,-0.9271,-2.0708,-2.0708,-2.0708s-2.0708,0.9271,-2.0708,2.0708c0,1.1437,0.9271,2.0708,2.0708,2.0708S27.0582,26.1544,27.0582,25.0108zM23.7117,25.0108c0,-0.7045,0.5711,-1.2757,1.2757,-1.2757s1.2757,0.5711,1.2757,1.2757c0,0.7045,-0.5711,1.2757,-1.2757,1.2757S23.7117,25.7153,23.7117,25.0108zM25.0044,25.8646c-0.4775,0,-0.8646,-0.3871,-0.8646,-0.8646c0,-0.4775,0.3871,-0.8646,0.8646,-0.8646c0.4775,0,0.8646,0.3871,0.8646,0.8646C25.869,25.4775,25.4819,25.8646,25.0044,25.8646zM29.9907,21.0416l-2.695,2.1951c-0.3733,-0.4862,-0.9032,-0.8581,-1.541,-1.029c-0.002,-0.0005,-0.004,-0.0009,-0.006,-0.0014l0.8921,-3.358c0.0044,0.0012,0.0088,0.0022,0.0132,0.0034C28.0256,19.2191,29.1717,20.008,29.9907,21.0416zM24.2235,27.7744l-0.9459,3.3435c-1.3145,-0.3711,-2.4171,-1.1308,-3.2165,-2.121l2.7018,-2.1851C23.1259,27.2613,23.6265,27.606,24.2235,27.7744z" fill="#FFFFFF"/>
      <path d="M25,18c-3.866,0,-7,3.134,-7,7c0,3.866,3.134,7,7,7c3.866,0,7,-3.134,7,-7C32,21.134,28.866,18,25,18zM22.9165,25.0108c0,-1.1437,0.9271,-2.0708,2.0708,-2.0708s2.0708,0.9271,2.0708,2.0708c0,1.1437,-0.9271,2.0708,-2.0708,2.0708S22.9165,26.1544,22.9165,25.0108zM29.9907,21.0416l-2.695,2.1951c-0.3733,-0.4862,-0.9032,-0.8581,-1.541,-1.029c-0.002,-0.0005,-0.004,-0.0009,-0.006,-0.0014l0.8921,-3.358c0.0044,0.0012,0.0088,0.0022,0.0132,0.0034C28.0256,19.2191,29.1717,20.008,29.9907,21.0416zM20.0611,28.9968l2.7018,-2.1851c0.363,0.4496,0.8637,0.7943,1.4606,0.9627l-0.9459,3.3435C21.9631,30.7467,20.8605,29.987,20.0611,28.9968zM24.9874,26.2865c0.7045,0,1.2757,-0.5711,1.2757,-1.2757c0,-0.7045,-0.5711,-1.2757,-1.2757,-1.2757s-1.2757,0.5711,-1.2757,1.2757C23.7117,25.7153,24.2828,26.2865,24.9874,26.2865zM25.0044,24.1354c0.4775,0,0.8646,0.3871,0.8646,0.8646c0,0.4775,-0.3871,0.8646,-0.8646,0.8646c-0.4775,0,-0.8646,-0.3871,-0.8646,-0.8646C24.1398,24.5225,24.5269,24.1354,25.0044,24.1354z" fill="#3E79B4"/>
    </g>
  </g>
</svg>